<svg width="200" height="100" viewBox="0 0 21 28" xmlns="http://www.w3.org/2000/svg">
    <defs/>
    <path fill="#000000" stroke="none" d="M 0 16 L 0 17 L 1 17 L 2 17 L 3 17 L 3 16 L 3 15 L 3 14 L 2 14 L 2 15 L 2 16 L 1 16 L 0 16 M 3 12 L 3 13 L 3 14 L 4 14 L 5 14 L 6 14 L 7 14 L 8 14 L 8 15 L 9 15 L 9 16 L 8 16 L 7 16 L 7 17 L 8 17 L 9 17 L 10 17 L 11 17 L 11 16 L 11 15 L 10 15 L 10 14 L 10 13 L 10 12 L 10 11 L 10 10 L 10 9 L 9 9 L 9 8 L 9 7 L 9 6 L 8 6 L 7 6 L 7 7 L 7 8 L 6 8 L 6 9 L 7 9 L 8 9 L 8 10 L 8 11 L 8 12 L 8 13 L 7 13 L 6 13 L 5 13 L 4 13 L 4 12 L 3 12 M 4 11 L 4 12 L 5 12 L 5 11 L 4 11 M 5 9 L 5 10 L 5 11 L 6 11 L 6 10 L 6 9 L 5 9"/>
</svg>
