<svg width="200" height="100" viewBox="0 0 23 28" xmlns="http://www.w3.org/2000/svg">
    <defs/>
    <path fill="#000000" stroke="none" d="M 2 10 L 2 11 L 2 12 L 2 13 L 2 14 L 2 15 L 2 16 L 3 16 L 3 17 L 4 17 L 5 17 L 6 17 L 7 17 L 8 17 L 9 17 L 10 17 L 11 17 L 11 16 L 11 15 L 10 15 L 10 16 L 9 16 L 8 16 L 7 16 L 6 16 L 5 16 L 5 15 L 5 14 L 4 14 L 4 13 L 4 12 L 5 12 L 5 11 L 5 10 L 5 9 L 6 9 L 6 8 L 7 8 L 7 7 L 8 7 L 9 7 L 9 6 L 8 6 L 7 6 L 6 6 L 6 7 L 5 7 L 4 7 L 4 8 L 4 9 L 3 9 L 3 10 L 2 10 M 9 5 L 9 6 L 10 6 L 10 7 L 11 7 L 12 7 L 12 8 L 13 8 L 13 7 L 13 6 L 12 6 L 12 5 L 11 5 L 10 5 L 9 5"/>
</svg>
