<svg width="200" height="100" viewBox="0 0 21 24" xmlns="http://www.w3.org/2000/svg">
    <defs/>
    <path fill="#000000" stroke="none" d="M 1 12 L 1 13 L 2 13 L 3 13 L 4 13 L 5 13 L 6 13 L 7 13 L 8 13 L 9 13 L 9 12 L 9 11 L 8 11 L 8 12 L 7 12 L 6 12 L 5 12 L 4 12 L 4 11 L 4 10 L 5 10 L 5 9 L 5 8 L 6 8 L 7 8 L 8 8 L 9 8 L 9 7 L 9 6 L 8 6 L 8 7 L 7 7 L 6 7 L 5 7 L 5 6 L 6 6 L 6 5 L 6 4 L 6 3 L 7 3 L 8 3 L 9 3 L 10 3 L 10 4 L 11 4 L 11 3 L 11 2 L 10 2 L 9 2 L 8 2 L 7 2 L 6 2 L 5 2 L 4 2 L 3 2 L 3 3 L 4 3 L 4 4 L 4 5 L 4 6 L 3 6 L 3 7 L 3 8 L 3 9 L 3 10 L 2 10 L 2 11 L 2 12 L 1 12"/>
</svg>
