<svg width="200" height="100" viewBox="0 0 23 24" xmlns="http://www.w3.org/2000/svg">
    <defs/>
    <path fill="#000000" stroke="none" d="M 2 6 L 2 7 L 2 8 L 2 9 L 2 10 L 2 11 L 3 11 L 3 12 L 3 13 L 4 13 L 5 13 L 6 13 L 7 13 L 8 13 L 9 13 L 10 13 L 11 13 L 11 12 L 11 11 L 11 10 L 11 9 L 12 9 L 13 9 L 13 8 L 12 8 L 11 8 L 10 8 L 9 8 L 8 8 L 8 9 L 9 9 L 9 10 L 9 11 L 9 12 L 8 12 L 7 12 L 6 12 L 5 12 L 5 11 L 5 10 L 4 10 L 4 9 L 4 8 L 5 8 L 5 7 L 5 6 L 5 5 L 6 5 L 6 4 L 7 4 L 7 3 L 8 3 L 9 3 L 9 2 L 8 2 L 7 2 L 6 2 L 6 3 L 5 3 L 4 3 L 4 4 L 4 5 L 3 5 L 3 6 L 2 6 M 9 1 L 9 2 L 10 2 L 11 2 L 11 3 L 12 3 L 12 4 L 13 4 L 13 3 L 13 2 L 12 2 L 12 1 L 11 1 L 10 1 L 9 1"/>
</svg>
