<svg width="200" height="100" viewBox="0 0 24 28" xmlns="http://www.w3.org/2000/svg">
    <defs/>
    <path fill="#000000" stroke="none" d="M 1 16 L 1 17 L 2 17 L 3 17 L 4 17 L 5 17 L 5 16 L 4 16 L 4 15 L 4 14 L 5 14 L 5 13 L 5 12 L 6 12 L 7 12 L 8 12 L 9 12 L 10 12 L 10 13 L 10 14 L 9 14 L 9 15 L 9 16 L 8 16 L 8 17 L 9 17 L 10 17 L 11 17 L 12 17 L 12 16 L 11 16 L 11 15 L 12 15 L 12 14 L 12 13 L 12 12 L 12 11 L 13 11 L 13 10 L 13 9 L 13 8 L 13 7 L 14 7 L 15 7 L 15 6 L 14 6 L 13 6 L 12 6 L 11 6 L 10 6 L 10 7 L 11 7 L 11 8 L 11 9 L 11 10 L 10 10 L 10 11 L 9 11 L 8 11 L 7 11 L 6 11 L 5 11 L 5 10 L 6 10 L 6 9 L 6 8 L 6 7 L 7 7 L 8 7 L 8 6 L 7 6 L 6 6 L 5 6 L 4 6 L 3 6 L 3 7 L 4 7 L 4 8 L 4 9 L 4 10 L 3 10 L 3 11 L 3 12 L 3 13 L 3 14 L 2 14 L 2 15 L 2 16 L 1 16"/>
</svg>
