<svg width="200" height="100" viewBox="0 0 19 28" xmlns="http://www.w3.org/2000/svg">
    <defs/>
    <path fill="#000000" stroke="none" d="M 1 16 L 1 17 L 2 17 L 3 17 L 4 17 L 5 17 L 6 17 L 7 17 L 8 17 L 9 17 L 9 16 L 8 16 L 7 16 L 6 16 L 5 16 L 4 16 L 4 15 L 5 15 L 5 14 L 5 13 L 5 12 L 5 11 L 6 11 L 6 10 L 6 9 L 6 8 L 6 7 L 7 7 L 8 7 L 8 6 L 7 6 L 6 6 L 5 6 L 4 6 L 3 6 L 3 7 L 4 7 L 4 8 L 4 9 L 4 10 L 3 10 L 3 11 L 3 12 L 3 13 L 3 14 L 2 14 L 2 15 L 2 16 L 1 16 M 9 15 L 9 16 L 10 16 L 10 15 L 9 15"/>
</svg>
