<svg width="200" height="100" viewBox="0 0 26 28" xmlns="http://www.w3.org/2000/svg">
    <defs/>
    <path fill="#000000" stroke="none" d="M 1 16 L 1 17 L 2 17 L 3 17 L 4 17 L 4 16 L 3 16 L 3 15 L 4 15 L 4 14 L 4 13 L 4 12 L 4 11 L 5 11 L 5 10 L 5 9 L 6 9 L 6 10 L 6 11 L 6 12 L 6 13 L 6 14 L 7 14 L 7 15 L 7 16 L 8 16 L 8 15 L 8 14 L 9 14 L 9 13 L 8 13 L 8 12 L 8 11 L 8 10 L 7 10 L 7 9 L 7 8 L 7 7 L 7 6 L 6 6 L 5 6 L 4 6 L 3 6 L 3 7 L 4 7 L 4 8 L 4 9 L 4 10 L 3 10 L 3 11 L 3 12 L 3 13 L 3 14 L 2 14 L 2 15 L 2 16 L 1 16 M 9 11 L 9 12 L 9 13 L 10 13 L 10 12 L 11 12 L 11 11 L 11 10 L 10 10 L 10 11 L 9 11 M 10 16 L 10 17 L 11 17 L 12 17 L 13 17 L 14 17 L 14 16 L 13 16 L 13 15 L 13 14 L 13 13 L 14 13 L 14 12 L 14 11 L 14 10 L 14 9 L 15 9 L 15 8 L 15 7 L 16 7 L 16 6 L 15 6 L 14 6 L 13 6 L 13 7 L 12 7 L 12 8 L 12 9 L 13 9 L 13 10 L 12 10 L 12 11 L 12 12 L 12 13 L 12 14 L 11 14 L 11 15 L 11 16 L 10 16 M 11 9 L 11 10 L 12 10 L 12 9 L 11 9"/>
</svg>
