<svg width="200" height="100" viewBox="0 0 24 28" xmlns="http://www.w3.org/2000/svg">
    <defs/>
    <path fill="#000000" stroke="none" d="M 1 16 L 1 17 L 2 17 L 3 17 L 4 17 L 4 16 L 3 16 L 3 15 L 4 15 L 4 14 L 4 13 L 4 12 L 4 11 L 5 11 L 5 10 L 5 9 L 6 9 L 6 10 L 6 11 L 7 11 L 7 12 L 7 13 L 8 13 L 8 14 L 8 15 L 8 16 L 9 16 L 9 17 L 10 17 L 11 17 L 11 16 L 11 15 L 11 14 L 11 13 L 12 13 L 12 12 L 12 11 L 12 10 L 12 9 L 13 9 L 13 8 L 13 7 L 14 7 L 14 6 L 13 6 L 12 6 L 11 6 L 11 7 L 12 7 L 12 8 L 11 8 L 11 9 L 11 10 L 11 11 L 11 12 L 10 12 L 10 13 L 9 13 L 9 12 L 9 11 L 8 11 L 8 10 L 8 9 L 7 9 L 7 8 L 7 7 L 6 7 L 6 6 L 5 6 L 4 6 L 3 6 L 3 7 L 4 7 L 4 8 L 4 9 L 4 10 L 3 10 L 3 11 L 3 12 L 3 13 L 3 14 L 2 14 L 2 15 L 2 16 L 1 16"/>
</svg>
