<svg width="200" height="100" viewBox="0 0 24 31" xmlns="http://www.w3.org/2000/svg">
    <defs/>
    <path fill="#000000" stroke="none" d="M 2 11 L 2 12 L 2 13 L 2 14 L 2 15 L 3 15 L 3 16 L 3 17 L 4 17 L 5 17 L 6 17 L 7 17 L 7 18 L 8 18 L 8 19 L 9 19 L 10 19 L 10 20 L 11 20 L 12 20 L 13 20 L 14 20 L 14 19 L 13 19 L 12 19 L 11 19 L 11 18 L 10 18 L 9 18 L 9 17 L 9 16 L 8 16 L 7 16 L 6 16 L 5 16 L 5 15 L 4 15 L 4 14 L 4 13 L 4 12 L 5 12 L 5 11 L 5 10 L 5 9 L 6 9 L 6 8 L 7 8 L 7 7 L 8 7 L 9 7 L 9 6 L 8 6 L 7 6 L 6 6 L 6 7 L 5 7 L 5 8 L 4 8 L 4 9 L 3 9 L 3 10 L 3 11 L 2 11 M 9 5 L 9 6 L 10 6 L 10 5 L 9 5 M 9 15 L 9 16 L 10 16 L 11 16 L 11 15 L 12 15 L 12 14 L 13 14 L 13 13 L 13 12 L 14 12 L 14 11 L 14 10 L 14 9 L 14 8 L 14 7 L 13 7 L 13 6 L 12 6 L 11 6 L 10 6 L 10 7 L 11 7 L 11 8 L 11 9 L 12 9 L 12 10 L 11 10 L 11 11 L 11 12 L 11 13 L 10 13 L 10 14 L 10 15 L 9 15"/>
</svg>
