<svg width="200" height="100" viewBox="0 0 20 28" xmlns="http://www.w3.org/2000/svg">
    <defs/>
    <path fill="#000000" stroke="none" d="M 1 15 L 1 16 L 1 17 L 2 17 L 3 17 L 4 17 L 5 17 L 6 17 L 7 17 L 7 16 L 8 16 L 9 16 L 9 15 L 9 14 L 9 13 L 9 12 L 8 12 L 8 11 L 7 11 L 7 10 L 6 10 L 6 9 L 5 9 L 5 8 L 5 7 L 6 7 L 7 7 L 7 6 L 6 6 L 5 6 L 4 6 L 4 7 L 3 7 L 3 8 L 3 9 L 3 10 L 4 10 L 4 11 L 5 11 L 5 12 L 6 12 L 6 13 L 6 14 L 7 14 L 7 15 L 6 15 L 6 16 L 5 16 L 4 16 L 3 16 L 3 15 L 2 15 L 1 15 M 7 5 L 7 6 L 8 6 L 8 7 L 9 7 L 9 8 L 10 8 L 10 7 L 11 7 L 11 6 L 10 6 L 9 6 L 9 5 L 8 5 L 7 5"/>
</svg>
