<svg width="200" height="100" viewBox="0 0 23 28" xmlns="http://www.w3.org/2000/svg">
    <defs/>
    <path fill="#000000" stroke="none" d="M 3 6 L 3 7 L 3 8 L 4 8 L 4 7 L 5 7 L 6 7 L 7 7 L 7 8 L 7 9 L 6 9 L 6 10 L 6 11 L 6 12 L 6 13 L 5 13 L 5 14 L 5 15 L 5 16 L 4 16 L 3 16 L 3 17 L 4 17 L 5 17 L 6 17 L 7 17 L 8 17 L 8 16 L 7 16 L 7 15 L 7 14 L 8 14 L 8 13 L 8 12 L 8 11 L 8 10 L 9 10 L 9 9 L 9 8 L 9 7 L 10 7 L 11 7 L 12 7 L 12 8 L 13 8 L 13 7 L 14 7 L 14 6 L 13 6 L 12 6 L 11 6 L 10 6 L 9 6 L 8 6 L 7 6 L 6 6 L 5 6 L 4 6 L 3 6"/>
</svg>
