<svg width="200" height="100" viewBox="0 0 24 28" xmlns="http://www.w3.org/2000/svg">
    <defs/>
    <path fill="#000000" stroke="none" d="M 2 14 L 2 15 L 3 15 L 3 16 L 3 17 L 4 17 L 5 17 L 6 17 L 6 16 L 5 16 L 5 15 L 5 14 L 5 13 L 5 12 L 5 11 L 5 10 L 6 10 L 6 9 L 6 8 L 6 7 L 7 7 L 8 7 L 8 6 L 7 6 L 6 6 L 5 6 L 4 6 L 3 6 L 3 7 L 4 7 L 4 8 L 4 9 L 4 10 L 3 10 L 3 11 L 3 12 L 3 13 L 3 14 L 2 14 M 7 16 L 7 17 L 8 17 L 9 17 L 9 16 L 8 16 L 7 16 M 9 14 L 9 15 L 9 16 L 10 16 L 10 15 L 11 15 L 11 14 L 11 13 L 11 12 L 12 12 L 12 11 L 12 10 L 12 9 L 12 8 L 13 8 L 13 7 L 14 7 L 14 6 L 13 6 L 12 6 L 11 6 L 10 6 L 10 7 L 11 7 L 11 8 L 11 9 L 11 10 L 11 11 L 10 11 L 10 12 L 10 13 L 10 14 L 9 14"/>
</svg>
