<svg width="200" height="100" viewBox="0 0 23 28" xmlns="http://www.w3.org/2000/svg">
    <defs/>
    <path fill="#000000" stroke="none" d="M 3 6 L 3 7 L 3 8 L 4 8 L 4 9 L 4 10 L 4 11 L 4 12 L 4 13 L 4 14 L 4 15 L 5 15 L 5 16 L 5 17 L 6 17 L 7 17 L 7 16 L 7 15 L 8 15 L 8 14 L 7 14 L 6 14 L 6 13 L 6 12 L 6 11 L 6 10 L 6 9 L 6 8 L 6 7 L 7 7 L 7 6 L 6 6 L 5 6 L 4 6 L 3 6 M 8 12 L 8 13 L 8 14 L 9 14 L 9 13 L 9 12 L 8 12 M 9 10 L 9 11 L 9 12 L 10 12 L 10 11 L 10 10 L 9 10 M 10 9 L 10 10 L 11 10 L 11 9 L 10 9 M 11 6 L 11 7 L 11 8 L 11 9 L 12 9 L 12 8 L 12 7 L 13 7 L 13 6 L 12 6 L 11 6"/>
</svg>
