<svg width="200" height="100" viewBox="0 0 26 28" xmlns="http://www.w3.org/2000/svg">
    <defs/>
    <path fill="#000000" stroke="none" d="M 3 6 L 3 7 L 4 7 L 4 8 L 4 9 L 4 10 L 4 11 L 4 12 L 4 13 L 4 14 L 4 15 L 4 16 L 4 17 L 5 17 L 5 16 L 6 16 L 6 15 L 6 14 L 5 14 L 5 13 L 5 12 L 5 11 L 6 11 L 6 10 L 6 9 L 6 8 L 6 7 L 7 7 L 7 6 L 6 6 L 5 6 L 4 6 L 3 6 M 6 12 L 6 13 L 6 14 L 7 14 L 7 13 L 7 12 L 6 12 M 7 10 L 7 11 L 7 12 L 8 12 L 8 11 L 9 11 L 9 12 L 9 13 L 9 14 L 9 15 L 9 16 L 9 17 L 10 17 L 11 17 L 11 16 L 11 15 L 12 15 L 12 14 L 11 14 L 11 13 L 11 12 L 11 11 L 11 10 L 11 9 L 11 8 L 11 7 L 11 6 L 10 6 L 10 7 L 9 7 L 9 8 L 9 9 L 10 9 L 10 10 L 9 10 L 9 9 L 8 9 L 8 10 L 7 10 M 12 12 L 12 13 L 12 14 L 13 14 L 13 13 L 13 12 L 12 12 M 13 10 L 13 11 L 13 12 L 14 12 L 14 11 L 14 10 L 13 10 M 14 6 L 14 7 L 15 7 L 15 8 L 16 8 L 16 7 L 17 7 L 17 6 L 16 6 L 15 6 L 14 6 M 14 8 L 14 9 L 14 10 L 15 10 L 15 9 L 15 8 L 14 8"/>
</svg>
